<svg xmlns="http://www.w3.org/2000/svg" width="1280" height="640" viewBox="0 0 1280 640" role="img" aria-labelledby="title desc">
  <title id="title">AI Agents Atlas social preview</title>
  <desc id="desc">A terminal-inspired map of AI agent projects.</desc>
  <defs>
    <linearGradient id="bg" x1="0" y1="0" x2="1" y2="1"><stop stop-color="#080a0f"/><stop offset=".55" stop-color="#0f172a"/><stop offset="1" stop-color="#151225"/></linearGradient>
    <pattern id="grid" width="48" height="48" patternUnits="userSpaceOnUse"><path d="M48 0H0V48" fill="none" stroke="#334155" stroke-opacity=".35"/></pattern>
  </defs>
  <rect width="1280" height="640" fill="url(#bg)"/>
  <rect width="1280" height="640" fill="url(#grid)"/>
  <rect x="64" y="58" width="1152" height="524" rx="22" fill="#0f141c" stroke="#334155"/>
  <text x="110" y="140" fill="#34d399" font-family="ui-monospace, SFMono-Regular, Consolas, monospace" font-size="24">$ atlas status --ready</text>
  <text x="110" y="252" fill="#f4f7fb" font-family="Inter, Arial, sans-serif" font-size="74" font-weight="750">AI Agents Atlas</text>
  <text x="110" y="315" fill="#c7d2e0" font-family="Inter, Arial, sans-serif" font-size="30">Discover. Learn. Build.</text>
  <path d="M840 164l90 74 112-32 86 92-66 96-128-18-88 86-104-82 38-112z" fill="none" stroke="#22d3ee" stroke-width="4" opacity=".7"/>
  <circle cx="840" cy="164" r="11" fill="#34d399"/><circle cx="930" cy="238" r="11" fill="#22d3ee"/><circle cx="1042" cy="206" r="11" fill="#a78bfa"/><circle cx="1128" cy="298" r="11" fill="#fbbf24"/><circle cx="1062" cy="394" r="11" fill="#fb7185"/><circle cx="934" cy="376" r="11" fill="#34d399"/><circle cx="846" cy="462" r="11" fill="#22d3ee"/><circle cx="742" cy="380" r="11" fill="#a78bfa"/><circle cx="780" cy="268" r="11" fill="#fbbf24"/>
  <text x="110" y="500" fill="#9aa7b8" font-family="ui-monospace, SFMono-Regular, Consolas, monospace" font-size="21">20 local agents  /  3 course lessons  /  searchable catalog</text>
</svg>
